<mxfile host="app.diagrams.net" modified="2024-03-21T07:43:30.386Z" agent="Mozilla/5.0 (Windows NT 10.0; Win64; x64) AppleWebKit/537.36 (KHTML, like Gecko) Chrome/122.0.0.0 Safari/537.36" etag="aerx4c9dMmtzmEeTzWS2" version="24.0.7" type="github">
  <diagram name="Страница — 1" id="8ZRJgbO4QMPUq5CpjL0Y">
    <mxGraphModel dx="1985" dy="1984" grid="1" gridSize="10" guides="1" tooltips="1" connect="1" arrows="1" fold="1" page="1" pageScale="1" pageWidth="827" pageHeight="1169" math="0" shadow="0">
      <root>
        <mxCell id="0" />
        <mxCell id="1" parent="0" />
        <mxCell id="8CoyVgu4wS_Gde3H0M5K-4" style="edgeStyle=orthogonalEdgeStyle;rounded=0;orthogonalLoop=1;jettySize=auto;html=1;exitX=1;exitY=0.5;exitDx=0;exitDy=0;entryX=0;entryY=0.25;entryDx=0;entryDy=0;" edge="1" parent="1" source="8CoyVgu4wS_Gde3H0M5K-1" target="8CoyVgu4wS_Gde3H0M5K-3">
          <mxGeometry relative="1" as="geometry" />
        </mxCell>
        <mxCell id="8CoyVgu4wS_Gde3H0M5K-7" style="edgeStyle=orthogonalEdgeStyle;rounded=0;orthogonalLoop=1;jettySize=auto;html=1;exitX=0;exitY=0.5;exitDx=0;exitDy=0;entryX=1;entryY=0.25;entryDx=0;entryDy=0;" edge="1" parent="1" source="8CoyVgu4wS_Gde3H0M5K-1" target="8CoyVgu4wS_Gde3H0M5K-6">
          <mxGeometry relative="1" as="geometry" />
        </mxCell>
        <mxCell id="8CoyVgu4wS_Gde3H0M5K-9" value="" style="edgeStyle=orthogonalEdgeStyle;rounded=0;orthogonalLoop=1;jettySize=auto;html=1;" edge="1" parent="1" source="8CoyVgu4wS_Gde3H0M5K-1" target="8CoyVgu4wS_Gde3H0M5K-8">
          <mxGeometry relative="1" as="geometry" />
        </mxCell>
        <mxCell id="8CoyVgu4wS_Gde3H0M5K-23" style="edgeStyle=orthogonalEdgeStyle;rounded=0;orthogonalLoop=1;jettySize=auto;html=1;exitX=0.5;exitY=0;exitDx=0;exitDy=0;entryX=0.5;entryY=1;entryDx=0;entryDy=0;" edge="1" parent="1" source="8CoyVgu4wS_Gde3H0M5K-1" target="8CoyVgu4wS_Gde3H0M5K-22">
          <mxGeometry relative="1" as="geometry" />
        </mxCell>
        <mxCell id="8CoyVgu4wS_Gde3H0M5K-26" style="edgeStyle=orthogonalEdgeStyle;rounded=0;orthogonalLoop=1;jettySize=auto;html=1;exitX=0.5;exitY=0;exitDx=0;exitDy=0;entryX=0;entryY=0.5;entryDx=0;entryDy=0;" edge="1" parent="1" source="8CoyVgu4wS_Gde3H0M5K-1" target="8CoyVgu4wS_Gde3H0M5K-25">
          <mxGeometry relative="1" as="geometry">
            <Array as="points">
              <mxPoint x="530" y="140" />
              <mxPoint x="530" y="-50" />
            </Array>
          </mxGeometry>
        </mxCell>
        <mxCell id="8CoyVgu4wS_Gde3H0M5K-1" value="SQLite" style="rounded=1;whiteSpace=wrap;html=1;" vertex="1" parent="1">
          <mxGeometry x="340" y="140" width="120" height="60" as="geometry" />
        </mxCell>
        <mxCell id="8CoyVgu4wS_Gde3H0M5K-2" value="Особенности библиотеки SQLite" style="swimlane;whiteSpace=wrap;html=1;" vertex="1" parent="1">
          <mxGeometry x="560" y="110" width="280" height="200" as="geometry" />
        </mxCell>
        <mxCell id="8CoyVgu4wS_Gde3H0M5K-3" value="1. Встраиваемая кросс-платформенная СУБД&lt;div&gt;2. Состоит из библиотеки с функциями и оболочки&lt;/div&gt;&lt;div&gt;3. Библиотека с динамической типизацией данных&lt;/div&gt;&lt;div&gt;4. Не является клиент-серверным приложением&lt;/div&gt;&lt;div&gt;5. Реализована на языке С&lt;/div&gt;" style="text;html=1;align=center;verticalAlign=middle;whiteSpace=wrap;rounded=0;" vertex="1" parent="8CoyVgu4wS_Gde3H0M5K-2">
          <mxGeometry y="20" width="280" height="180" as="geometry" />
        </mxCell>
        <mxCell id="8CoyVgu4wS_Gde3H0M5K-5" value="Ограничения" style="swimlane;whiteSpace=wrap;html=1;" vertex="1" parent="1">
          <mxGeometry x="10" y="100" width="250" height="220" as="geometry" />
        </mxCell>
        <mxCell id="8CoyVgu4wS_Gde3H0M5K-6" value="1. RIGHT и FULL OUTER JOIN заменяется LEFT OUTER JOIN&lt;div&gt;2. Не поддерживается DROP, ALTER COLUMN, ADD CONSTRAINT&lt;/div&gt;&lt;div&gt;3. Нельзя выполнить UPDATE представления&lt;/div&gt;&lt;div&gt;&lt;br&gt;&lt;/div&gt;" style="text;html=1;align=center;verticalAlign=middle;whiteSpace=wrap;rounded=0;" vertex="1" parent="8CoyVgu4wS_Gde3H0M5K-5">
          <mxGeometry y="20" width="250" height="200" as="geometry" />
        </mxCell>
        <mxCell id="8CoyVgu4wS_Gde3H0M5K-16" style="edgeStyle=orthogonalEdgeStyle;rounded=0;orthogonalLoop=1;jettySize=auto;html=1;exitX=0.5;exitY=1;exitDx=0;exitDy=0;entryX=0.5;entryY=0;entryDx=0;entryDy=0;" edge="1" parent="1" source="8CoyVgu4wS_Gde3H0M5K-8" target="8CoyVgu4wS_Gde3H0M5K-10">
          <mxGeometry relative="1" as="geometry" />
        </mxCell>
        <mxCell id="8CoyVgu4wS_Gde3H0M5K-17" style="edgeStyle=orthogonalEdgeStyle;rounded=0;orthogonalLoop=1;jettySize=auto;html=1;exitX=0.5;exitY=1;exitDx=0;exitDy=0;entryX=0.5;entryY=0;entryDx=0;entryDy=0;" edge="1" parent="1" source="8CoyVgu4wS_Gde3H0M5K-8" target="8CoyVgu4wS_Gde3H0M5K-12">
          <mxGeometry relative="1" as="geometry" />
        </mxCell>
        <mxCell id="8CoyVgu4wS_Gde3H0M5K-18" style="edgeStyle=orthogonalEdgeStyle;rounded=0;orthogonalLoop=1;jettySize=auto;html=1;exitX=0.5;exitY=1;exitDx=0;exitDy=0;entryX=0.5;entryY=0;entryDx=0;entryDy=0;" edge="1" parent="1" source="8CoyVgu4wS_Gde3H0M5K-8" target="8CoyVgu4wS_Gde3H0M5K-14">
          <mxGeometry relative="1" as="geometry" />
        </mxCell>
        <mxCell id="8CoyVgu4wS_Gde3H0M5K-20" value="" style="edgeStyle=orthogonalEdgeStyle;rounded=0;orthogonalLoop=1;jettySize=auto;html=1;" edge="1" parent="1" source="8CoyVgu4wS_Gde3H0M5K-8" target="8CoyVgu4wS_Gde3H0M5K-19">
          <mxGeometry relative="1" as="geometry" />
        </mxCell>
        <mxCell id="8CoyVgu4wS_Gde3H0M5K-8" value="Группы команд" style="rounded=1;whiteSpace=wrap;html=1;" vertex="1" parent="1">
          <mxGeometry x="340" y="380" width="120" height="60" as="geometry" />
        </mxCell>
        <mxCell id="8CoyVgu4wS_Gde3H0M5K-10" value="DDL" style="swimlane;whiteSpace=wrap;html=1;" vertex="1" parent="1">
          <mxGeometry x="64" y="520" width="200" height="200" as="geometry" />
        </mxCell>
        <mxCell id="8CoyVgu4wS_Gde3H0M5K-11" value="1. CREATE&lt;div&gt;2. ALTER&lt;/div&gt;&lt;div&gt;3. DROP&lt;/div&gt;" style="text;html=1;align=center;verticalAlign=middle;whiteSpace=wrap;rounded=0;" vertex="1" parent="8CoyVgu4wS_Gde3H0M5K-10">
          <mxGeometry y="20" width="200" height="180" as="geometry" />
        </mxCell>
        <mxCell id="8CoyVgu4wS_Gde3H0M5K-12" value="DML" style="swimlane;whiteSpace=wrap;html=1;" vertex="1" parent="1">
          <mxGeometry x="314" y="520" width="200" height="200" as="geometry" />
        </mxCell>
        <mxCell id="8CoyVgu4wS_Gde3H0M5K-13" value="1. INSERT&lt;div&gt;2. UPDATE&lt;/div&gt;&lt;div&gt;3. DELETE&lt;/div&gt;" style="text;html=1;align=center;verticalAlign=middle;whiteSpace=wrap;rounded=0;" vertex="1" parent="8CoyVgu4wS_Gde3H0M5K-12">
          <mxGeometry y="20" width="200" height="180" as="geometry" />
        </mxCell>
        <mxCell id="8CoyVgu4wS_Gde3H0M5K-14" value="DQL" style="swimlane;whiteSpace=wrap;html=1;" vertex="1" parent="1">
          <mxGeometry x="564" y="520" width="200" height="200" as="geometry" />
        </mxCell>
        <mxCell id="8CoyVgu4wS_Gde3H0M5K-15" value="1. SELECT" style="text;html=1;align=center;verticalAlign=middle;whiteSpace=wrap;rounded=0;" vertex="1" parent="8CoyVgu4wS_Gde3H0M5K-14">
          <mxGeometry y="20" width="200" height="180" as="geometry" />
        </mxCell>
        <mxCell id="8CoyVgu4wS_Gde3H0M5K-19" value="Чувствительные к регистру команды: GLOB, glob" style="rounded=1;whiteSpace=wrap;html=1;" vertex="1" parent="1">
          <mxGeometry x="540" y="380" width="120" height="60" as="geometry" />
        </mxCell>
        <mxCell id="8CoyVgu4wS_Gde3H0M5K-21" value="Классы" style="swimlane;whiteSpace=wrap;html=1;" vertex="1" parent="1">
          <mxGeometry x="300" y="-160" width="200" height="200" as="geometry" />
        </mxCell>
        <mxCell id="8CoyVgu4wS_Gde3H0M5K-22" value="1. NULL&lt;div&gt;2. INTEGER&lt;/div&gt;&lt;div&gt;3. TEXT&lt;/div&gt;&lt;div&gt;4. REAL&lt;/div&gt;&lt;div&gt;5. BLOB&lt;/div&gt;&lt;div&gt;6. AFFINITY&lt;/div&gt;&lt;div&gt;6.1. NUMERIC&lt;/div&gt;&lt;div&gt;6.2. NONE&lt;/div&gt;" style="text;html=1;align=center;verticalAlign=middle;whiteSpace=wrap;rounded=0;" vertex="1" parent="8CoyVgu4wS_Gde3H0M5K-21">
          <mxGeometry y="20" width="200" height="180" as="geometry" />
        </mxCell>
        <mxCell id="8CoyVgu4wS_Gde3H0M5K-24" value="Виды объединений" style="swimlane;whiteSpace=wrap;html=1;" vertex="1" parent="1">
          <mxGeometry x="590" y="-160" width="200" height="200" as="geometry" />
        </mxCell>
        <mxCell id="8CoyVgu4wS_Gde3H0M5K-25" value="1. LEFT&lt;div&gt;2. RIGHT&lt;/div&gt;&lt;div&gt;3. INNER&lt;/div&gt;&lt;div&gt;4. FULL&lt;/div&gt;&lt;div&gt;5. OUTER&lt;/div&gt;&lt;div&gt;6. NATURAL&lt;/div&gt;" style="text;html=1;align=center;verticalAlign=middle;whiteSpace=wrap;rounded=0;" vertex="1" parent="8CoyVgu4wS_Gde3H0M5K-24">
          <mxGeometry y="20" width="200" height="180" as="geometry" />
        </mxCell>
      </root>
    </mxGraphModel>
  </diagram>
</mxfile>
